<?xml version="1.0" encoding="UTF-8" standalone="no"?>
<!-- Generator: Adobe Illustrator 16.0.0, SVG Export Plug-In . SVG Version: 6.00 Build 0)  -->

<svg
   xmlns:dc="http://purl.org/dc/elements/1.1/"
   xmlns:cc="http://creativecommons.org/ns#"
   xmlns:rdf="http://www.w3.org/1999/02/22-rdf-syntax-ns#"
   xmlns:svg="http://www.w3.org/2000/svg"
   xmlns="http://www.w3.org/2000/svg"
   xmlns:sodipodi="http://sodipodi.sourceforge.net/DTD/sodipodi-0.dtd"
   xmlns:inkscape="http://www.inkscape.org/namespaces/inkscape"
   version="1.2"
   id="Layer_1"
   x="0px"
   y="0px"
   width="283.46px"
   height="439.37px"
   viewBox="6 74.915 283.46 439.37"
   xml:space="preserve"
   inkscape:version="0.48.4 r9939"
   sodipodi:docname="robot-rebird-2-0-sensor.svg"><metadata
     id="metadata353"><rdf:RDF><cc:Work
         rdf:about=""><dc:format>image/svg+xml</dc:format><dc:type
           rdf:resource="http://purl.org/dc/dcmitype/StillImage" /><dc:title></dc:title></cc:Work></rdf:RDF></metadata><defs
     id="defs351"><filter
       color-interpolation-filters="sRGB"
       inkscape:collect="always"
       id="filter3992-4"
       x="-0.28885794"
       width="1.5777159"
       y="-0.27953994"
       height="1.5590799"><feGaussianBlur
         inkscape:collect="always"
         stdDeviation="1.1883318"
         id="feGaussianBlur3994-9" /></filter><filter
       color-interpolation-filters="sRGB"
       inkscape:collect="always"
       id="filter3992-4-1"
       x="-0.28885794"
       width="1.5777159"
       y="-0.27953994"
       height="1.5590799"><feGaussianBlur
         inkscape:collect="always"
         stdDeviation="1.1883318"
         id="feGaussianBlur3994-9-3" /></filter></defs><sodipodi:namedview
     pagecolor="#ffffff"
     bordercolor="#666666"
     borderopacity="1"
     objecttolerance="10"
     gridtolerance="10"
     guidetolerance="10"
     inkscape:pageopacity="0"
     inkscape:pageshadow="2"
     inkscape:window-width="1806"
     inkscape:window-height="937"
     id="namedview349"
     showgrid="false"
     inkscape:zoom="4.2970617"
     inkscape:cx="103.28705"
     inkscape:cy="382.17092"
     inkscape:window-x="114"
     inkscape:window-y="34"
     inkscape:window-maximized="0"
     inkscape:current-layer="Layer_1" /><g
     id="silkscreen"><g
       id="g4"><g
         id="g6"><g
           id="g8"><g
             id="g10"><circle
               fill="none"
               stroke="#FFFFFF"
               stroke-width="2.8347"
               stroke-miterlimit="10"
               cx="120.895"
               cy="330.892"
               r="1.417"
               id="circle12" /><circle
               fill="none"
               stroke="#FFFFFF"
               stroke-width="2.8347"
               stroke-miterlimit="10"
               cx="120.895"
               cy="323.692"
               r="1.417"
               id="circle14" /></g><g
             id="g16"><circle
               fill="none"
               stroke="#FFFFFF"
               stroke-width="2.8347"
               stroke-miterlimit="10"
               cx="120.895"
               cy="323.692"
               r="1.417"
               id="circle18" /><circle
               fill="none"
               stroke="#FFFFFF"
               stroke-width="2.8347"
               stroke-miterlimit="10"
               cx="120.895"
               cy="316.491"
               r="1.417"
               id="circle20" /></g><g
             id="g22"><circle
               fill="none"
               stroke="#FFFFFF"
               stroke-width="2.8347"
               stroke-miterlimit="10"
               cx="120.895"
               cy="316.491"
               r="1.417"
               id="circle24" /><circle
               fill="none"
               stroke="#FFFFFF"
               stroke-width="2.8347"
               stroke-miterlimit="10"
               cx="120.895"
               cy="309.291"
               r="1.417"
               id="circle26" /></g><g
             id="g28"><circle
               fill="none"
               stroke="#FFFFFF"
               stroke-width="2.8347"
               stroke-miterlimit="10"
               cx="120.895"
               cy="309.291"
               r="1.417"
               id="circle30" /><circle
               fill="none"
               stroke="#FFFFFF"
               stroke-width="2.8347"
               stroke-miterlimit="10"
               cx="120.895"
               cy="302.091"
               r="1.417"
               id="circle32" /></g><g
             id="g34"><circle
               fill="none"
               stroke="#FFFFFF"
               stroke-width="2.8347"
               stroke-miterlimit="10"
               cx="120.895"
               cy="302.091"
               r="1.417"
               id="circle36" /><circle
               fill="none"
               stroke="#FFFFFF"
               stroke-width="2.8347"
               stroke-miterlimit="10"
               cx="120.895"
               cy="294.892"
               r="1.417"
               id="circle38" /></g><g
             id="g40"><circle
               fill="none"
               stroke="#FFFFFF"
               stroke-width="2.8347"
               stroke-miterlimit="10"
               cx="120.895"
               cy="294.892"
               r="1.417"
               id="circle42" /><circle
               fill="none"
               stroke="#FFFFFF"
               stroke-width="2.8347"
               stroke-miterlimit="10"
               cx="120.895"
               cy="287.69"
               r="1.417"
               id="circle44" /></g></g><g
           id="g46"><g
             id="g48"><circle
               fill="none"
               stroke="#FFFFFF"
               stroke-width="2.8347"
               stroke-miterlimit="10"
               cx="120.895"
               cy="366.894"
               r="1.417"
               id="circle50" /><circle
               fill="none"
               stroke="#FFFFFF"
               stroke-width="2.8347"
               stroke-miterlimit="10"
               cx="120.895"
               cy="359.692"
               r="1.417"
               id="circle52" /></g><g
             id="g54"><circle
               fill="none"
               stroke="#FFFFFF"
               stroke-width="2.8347"
               stroke-miterlimit="10"
               cx="120.895"
               cy="359.692"
               r="1.417"
               id="circle56" /><circle
               fill="none"
               stroke="#FFFFFF"
               stroke-width="2.8347"
               stroke-miterlimit="10"
               cx="120.895"
               cy="352.492"
               r="1.417"
               id="circle58" /></g><g
             id="g60"><circle
               fill="none"
               stroke="#FFFFFF"
               stroke-width="2.8347"
               stroke-miterlimit="10"
               cx="120.895"
               cy="352.492"
               r="1.417"
               id="circle62" /><circle
               fill="none"
               stroke="#FFFFFF"
               stroke-width="2.8347"
               stroke-miterlimit="10"
               cx="120.895"
               cy="345.292"
               r="1.417"
               id="circle64" /></g><g
             id="g66"><circle
               fill="none"
               stroke="#FFFFFF"
               stroke-width="2.8347"
               stroke-miterlimit="10"
               cx="120.895"
               cy="345.292"
               r="1.417"
               id="circle68" /><circle
               fill="none"
               stroke="#FFFFFF"
               stroke-width="2.8347"
               stroke-miterlimit="10"
               cx="120.895"
               cy="338.092"
               r="1.417"
               id="circle70" /></g><g
             id="g72"><circle
               fill="none"
               stroke="#FFFFFF"
               stroke-width="2.8347"
               stroke-miterlimit="10"
               cx="120.895"
               cy="338.092"
               r="1.417"
               id="circle74" /><circle
               fill="none"
               stroke="#FFFFFF"
               stroke-width="2.8347"
               stroke-miterlimit="10"
               cx="120.895"
               cy="330.892"
               r="1.417"
               id="circle76" /></g><g
             id="g78"><circle
               fill="none"
               stroke="#FFFFFF"
               stroke-width="2.8347"
               stroke-miterlimit="10"
               cx="120.895"
               cy="330.892"
               r="1.417"
               id="circle80" /><circle
               fill="none"
               stroke="#FFFFFF"
               stroke-width="2.8347"
               stroke-miterlimit="10"
               cx="120.895"
               cy="323.692"
               r="1.417"
               id="circle82" /></g></g></g><g
         id="g84"><g
           id="g86"><g
             id="g88"><circle
               fill="none"
               stroke="#FFFFFF"
               stroke-width="2.8347"
               stroke-miterlimit="10"
               cx="163.646"
               cy="330.892"
               r="1.417"
               id="circle90" /><circle
               fill="none"
               stroke="#FFFFFF"
               stroke-width="2.8347"
               stroke-miterlimit="10"
               cx="163.646"
               cy="323.692"
               r="1.417"
               id="circle92" /></g><g
             id="g94"><circle
               fill="none"
               stroke="#FFFFFF"
               stroke-width="2.8347"
               stroke-miterlimit="10"
               cx="163.646"
               cy="323.692"
               r="1.417"
               id="circle96" /><circle
               fill="none"
               stroke="#FFFFFF"
               stroke-width="2.8347"
               stroke-miterlimit="10"
               cx="163.646"
               cy="316.491"
               r="1.417"
               id="circle98" /></g><g
             id="g100"><circle
               fill="none"
               stroke="#FFFFFF"
               stroke-width="2.8347"
               stroke-miterlimit="10"
               cx="163.646"
               cy="316.491"
               r="1.417"
               id="circle102" /><circle
               fill="none"
               stroke="#FFFFFF"
               stroke-width="2.8347"
               stroke-miterlimit="10"
               cx="163.646"
               cy="309.291"
               r="1.417"
               id="circle104" /></g><g
             id="g106"><circle
               fill="none"
               stroke="#FFFFFF"
               stroke-width="2.8347"
               stroke-miterlimit="10"
               cx="163.646"
               cy="309.291"
               r="1.417"
               id="circle108" /><circle
               fill="none"
               stroke="#FFFFFF"
               stroke-width="2.8347"
               stroke-miterlimit="10"
               cx="163.646"
               cy="302.091"
               r="1.417"
               id="circle110" /></g><g
             id="g112"><circle
               fill="none"
               stroke="#FFFFFF"
               stroke-width="2.8347"
               stroke-miterlimit="10"
               cx="163.646"
               cy="302.091"
               r="1.417"
               id="circle114" /><circle
               fill="none"
               stroke="#FFFFFF"
               stroke-width="2.8347"
               stroke-miterlimit="10"
               cx="163.646"
               cy="294.892"
               r="1.417"
               id="circle116" /></g><g
             id="g118"><circle
               fill="none"
               stroke="#FFFFFF"
               stroke-width="2.8347"
               stroke-miterlimit="10"
               cx="163.646"
               cy="294.892"
               r="1.417"
               id="circle120" /><circle
               fill="none"
               stroke="#FFFFFF"
               stroke-width="2.8347"
               stroke-miterlimit="10"
               cx="163.646"
               cy="287.69"
               r="1.417"
               id="circle122" /></g></g><g
           id="g124"><g
             id="g126"><circle
               fill="none"
               stroke="#FFFFFF"
               stroke-width="2.8347"
               stroke-miterlimit="10"
               cx="163.646"
               cy="366.894"
               r="1.417"
               id="circle128" /><circle
               fill="none"
               stroke="#FFFFFF"
               stroke-width="2.8347"
               stroke-miterlimit="10"
               cx="163.646"
               cy="359.692"
               r="1.417"
               id="circle130" /></g><g
             id="g132"><circle
               fill="none"
               stroke="#FFFFFF"
               stroke-width="2.8347"
               stroke-miterlimit="10"
               cx="163.646"
               cy="359.692"
               r="1.417"
               id="circle134" /><circle
               fill="none"
               stroke="#FFFFFF"
               stroke-width="2.8347"
               stroke-miterlimit="10"
               cx="163.646"
               cy="352.492"
               r="1.417"
               id="circle136" /></g><g
             id="g138"><circle
               fill="none"
               stroke="#FFFFFF"
               stroke-width="2.8347"
               stroke-miterlimit="10"
               cx="163.646"
               cy="352.492"
               r="1.417"
               id="circle140" /><circle
               fill="none"
               stroke="#FFFFFF"
               stroke-width="2.8347"
               stroke-miterlimit="10"
               cx="163.646"
               cy="345.292"
               r="1.417"
               id="circle142" /></g><g
             id="g144"><circle
               fill="none"
               stroke="#FFFFFF"
               stroke-width="2.8347"
               stroke-miterlimit="10"
               cx="163.646"
               cy="345.292"
               r="1.417"
               id="circle146" /><circle
               fill="none"
               stroke="#FFFFFF"
               stroke-width="2.8347"
               stroke-miterlimit="10"
               cx="163.646"
               cy="338.092"
               r="1.417"
               id="circle148" /></g><g
             id="g150"><circle
               fill="none"
               stroke="#FFFFFF"
               stroke-width="2.8347"
               stroke-miterlimit="10"
               cx="163.646"
               cy="338.092"
               r="1.417"
               id="circle152" /><circle
               fill="none"
               stroke="#FFFFFF"
               stroke-width="2.8347"
               stroke-miterlimit="10"
               cx="163.646"
               cy="330.892"
               r="1.417"
               id="circle154" /></g><g
             id="g156"><circle
               fill="none"
               stroke="#FFFFFF"
               stroke-width="2.8347"
               stroke-miterlimit="10"
               cx="163.646"
               cy="330.892"
               r="1.417"
               id="circle158" /><circle
               fill="none"
               stroke="#FFFFFF"
               stroke-width="2.8347"
               stroke-miterlimit="10"
               cx="163.646"
               cy="323.692"
               r="1.417"
               id="circle160" /></g></g></g></g><g
       id="g162"><g
         id="g164"><g
           id="g166"><g
             id="g168"><g
               id="cny70_x5F_new_3_"><g
                 id="g171"><rect
                   x="148.403"
                   y="86.528"
                   fill="none"
                   stroke="#FFFFFF"
                   stroke-width="2"
                   stroke-miterlimit="10"
                   width="19.843"
                   height="19.843"
                   id="rect173" /></g><g
                 id="g175"><g
                   id="g177"><circle
                     fill="none"
                     stroke="#FFFFFF"
                     stroke-miterlimit="10"
                     cx="154.324"
                     cy="92.668"
                     r="1.418"
                     id="circle179" /><circle
                     fill="none"
                     stroke="#FFFFFF"
                     stroke-miterlimit="10"
                     cx="162.324"
                     cy="92.668"
                     r="1.418"
                     id="circle181" /></g><circle
                   fill="none"
                   stroke="#FFFFFF"
                   stroke-miterlimit="10"
                   cx="162.324"
                   cy="100.518"
                   r="1.418"
                   id="circle183" /><circle
                   fill="none"
                   stroke="#FFFFFF"
                   stroke-miterlimit="10"
                   cx="154.324"
                   cy="100.518"
                   r="1.418"
                   id="circle185" /></g></g><g
               id="cny70_x5F_new_4_"><g
                 id="g188"><rect
                   x="127.315"
                   y="86.528"
                   fill="none"
                   stroke="#FFFFFF"
                   stroke-width="2"
                   stroke-miterlimit="10"
                   width="19.843"
                   height="19.843"
                   id="rect190" /></g><g
                 id="g192"><g
                   id="g194"><circle
                     fill="none"
                     stroke="#FFFFFF"
                     stroke-miterlimit="10"
                     cx="133.236"
                     cy="92.668"
                     r="1.418"
                     id="circle196" /><circle
                     fill="none"
                     stroke="#FFFFFF"
                     stroke-miterlimit="10"
                     cx="141.236"
                     cy="92.668"
                     r="1.418"
                     id="circle198" /></g><circle
                   fill="none"
                   stroke="#FFFFFF"
                   stroke-miterlimit="10"
                   cx="141.236"
                   cy="100.518"
                   r="1.418"
                   id="circle200" /><circle
                   fill="none"
                   stroke="#FFFFFF"
                   stroke-miterlimit="10"
                   cx="133.236"
                   cy="100.518"
                   r="1.418"
                   id="circle202" /></g></g></g><g
             id="cny70_x5F_new_2_"><g
               id="g205"><rect
                 x="178.391"
                 y="86.528"
                 fill="none"
                 stroke="#FFFFFF"
                 stroke-width="2"
                 stroke-miterlimit="10"
                 width="19.844"
                 height="19.843"
                 id="rect207" /></g><g
               id="g209"><g
                 id="g211"><circle
                   fill="none"
                   stroke="#FFFFFF"
                   stroke-miterlimit="10"
                   cx="184.313"
                   cy="92.668"
                   r="1.418"
                   id="circle213" /><circle
                   fill="none"
                   stroke="#FFFFFF"
                   stroke-miterlimit="10"
                   cx="192.313"
                   cy="92.668"
                   r="1.418"
                   id="circle215" /></g><circle
                 fill="none"
                 stroke="#FFFFFF"
                 stroke-miterlimit="10"
                 cx="192.313"
                 cy="100.518"
                 r="1.418"
                 id="circle217" /><circle
                 fill="none"
                 stroke="#FFFFFF"
                 stroke-miterlimit="10"
                 cx="184.313"
                 cy="100.518"
                 r="1.418"
                 id="circle219" /></g></g><g
             id="cny70_x5F_new_5_"><g
               id="g222"><rect
                 x="97.243"
                 y="86.528"
                 fill="none"
                 stroke="#FFFFFF"
                 stroke-width="2"
                 stroke-miterlimit="10"
                 width="19.843"
                 height="19.843"
                 id="rect224" /></g><g
               id="g226"><g
                 id="g228"><circle
                   fill="none"
                   stroke="#FFFFFF"
                   stroke-miterlimit="10"
                   cx="103.164"
                   cy="92.668"
                   r="1.418"
                   id="circle230" /><circle
                   fill="none"
                   stroke="#FFFFFF"
                   stroke-miterlimit="10"
                   cx="111.164"
                   cy="92.668"
                   r="1.418"
                   id="circle232" /></g><circle
                 fill="none"
                 stroke="#FFFFFF"
                 stroke-miterlimit="10"
                 cx="111.164"
                 cy="100.518"
                 r="1.418"
                 id="circle234" /><circle
                 fill="none"
                 stroke="#FFFFFF"
                 stroke-miterlimit="10"
                 cx="103.164"
                 cy="100.518"
                 r="1.418"
                 id="circle236" /></g></g></g><g
           id="cny70_x5F_new"><g
             id="g239"><rect
               x="63.53"
               y="86.528"
               fill="none"
               stroke="#FFFFFF"
               stroke-width="2"
               stroke-miterlimit="10"
               width="19.843"
               height="19.843"
               id="rect241" /></g><g
             id="g243"><g
               id="g245"><circle
                 fill="none"
                 stroke="#FFFFFF"
                 stroke-miterlimit="10"
                 cx="69.452"
                 cy="92.668"
                 r="1.418"
                 id="circle247" /><circle
                 fill="none"
                 stroke="#FFFFFF"
                 stroke-miterlimit="10"
                 cx="77.452"
                 cy="92.668"
                 r="1.418"
                 id="circle249" /></g><circle
               fill="none"
               stroke="#FFFFFF"
               stroke-miterlimit="10"
               cx="77.452"
               cy="100.518"
               r="1.418"
               id="circle251" /><circle
               fill="none"
               stroke="#FFFFFF"
               stroke-miterlimit="10"
               cx="69.452"
               cy="100.518"
               r="1.418"
               id="circle253" /></g></g><g
           id="cny70_x5F_new_1_"><g
             id="g256"><rect
               x="212.085"
               y="86.528"
               fill="none"
               stroke="#FFFFFF"
               stroke-width="2"
               stroke-miterlimit="10"
               width="19.845"
               height="19.843"
               id="rect258" /></g><g
             id="g260"><g
               id="g262"><circle
                 fill="none"
                 stroke="#FFFFFF"
                 stroke-miterlimit="10"
                 cx="218.007"
                 cy="92.668"
                 r="1.418"
                 id="circle264" /><circle
                 fill="none"
                 stroke="#FFFFFF"
                 stroke-miterlimit="10"
                 cx="226.007"
                 cy="92.668"
                 r="1.418"
                 id="circle266" /></g><circle
               fill="none"
               stroke="#FFFFFF"
               stroke-miterlimit="10"
               cx="226.007"
               cy="100.518"
               r="1.418"
               id="circle268" /><circle
               fill="none"
               stroke="#FFFFFF"
               stroke-miterlimit="10"
               cx="218.007"
               cy="100.518"
               r="1.418"
               id="circle270" /></g></g></g><g
         id="g272"><g
           id="cny70_4_"><g
             id="g275"><rect
               x="177.496"
               y="86.528"
               fill="none"
               stroke="#FFFFFF"
               stroke-miterlimit="10"
               width="19.842"
               height="19.843"
               id="rect277" /></g><g
             id="g279"><g
               id="g281"><circle
                 fill="none"
                 stroke="#FFFFFF"
                 stroke-miterlimit="10"
                 cx="183.416"
                 cy="92.668"
                 r="1.418"
                 id="circle283" /><circle
                 fill="none"
                 stroke="#FFFFFF"
                 stroke-miterlimit="10"
                 cx="191.416"
                 cy="92.668"
                 r="1.418"
                 id="circle285" /></g><circle
               fill="none"
               stroke="#FFFFFF"
               stroke-miterlimit="10"
               cx="191.416"
               cy="100.518"
               r="1.418"
               id="circle287" /><circle
               fill="none"
               stroke="#FFFFFF"
               stroke-miterlimit="10"
               cx="183.416"
               cy="100.518"
               r="1.418"
               id="circle289" /></g></g><g
           id="cny70_3_"><g
             id="g292"><rect
               x="98.123"
               y="86.528"
               fill="none"
               stroke="#FFFFFF"
               stroke-miterlimit="10"
               width="19.843"
               height="19.843"
               id="rect294" /></g><g
             id="g296"><g
               id="g298"><circle
                 fill="none"
                 stroke="#FFFFFF"
                 stroke-miterlimit="10"
                 cx="104.044"
                 cy="92.668"
                 r="1.418"
                 id="circle300" /><circle
                 fill="none"
                 stroke="#FFFFFF"
                 stroke-miterlimit="10"
                 cx="112.044"
                 cy="92.668"
                 r="1.418"
                 id="circle302" /></g><circle
               fill="none"
               stroke="#FFFFFF"
               stroke-miterlimit="10"
               cx="112.044"
               cy="100.518"
               r="1.418"
               id="circle304" /><circle
               fill="none"
               stroke="#FFFFFF"
               stroke-miterlimit="10"
               cx="104.044"
               cy="100.518"
               r="1.418"
               id="circle306" /></g></g><g
           id="g308"><g
             id="cny70_2_"><g
               id="g311"><rect
                 x="127.887"
                 y="86.528"
                 fill="none"
                 stroke="#FFFFFF"
                 stroke-miterlimit="10"
                 width="19.843"
                 height="19.843"
                 id="rect313" /></g><g
               id="g315"><g
                 id="g317"><circle
                   fill="none"
                   stroke="#FFFFFF"
                   stroke-miterlimit="10"
                   cx="133.809"
                   cy="92.668"
                   r="1.418"
                   id="circle319" /><circle
                   fill="none"
                   stroke="#FFFFFF"
                   stroke-miterlimit="10"
                   cx="141.809"
                   cy="92.668"
                   r="1.418"
                   id="circle321" /></g><circle
                 fill="none"
                 stroke="#FFFFFF"
                 stroke-miterlimit="10"
                 cx="141.809"
                 cy="100.518"
                 r="1.418"
                 id="circle323" /><circle
                 fill="none"
                 stroke="#FFFFFF"
                 stroke-miterlimit="10"
                 cx="133.809"
                 cy="100.518"
                 r="1.418"
                 id="circle325" /></g></g><g
             id="cny70_1_"><g
               id="g328"><rect
                 x="147.73"
                 y="86.528"
                 fill="none"
                 stroke="#FFFFFF"
                 stroke-miterlimit="10"
                 width="19.844"
                 height="19.843"
                 id="rect330" /></g><g
               id="g332"><g
                 id="g334"><circle
                   fill="none"
                   stroke="#FFFFFF"
                   stroke-miterlimit="10"
                   cx="153.651"
                   cy="92.668"
                   r="1.418"
                   id="circle336" /><circle
                   fill="none"
                   stroke="#FFFFFF"
                   stroke-miterlimit="10"
                   cx="161.651"
                   cy="92.668"
                   r="1.418"
                   id="circle338" /></g><circle
                 fill="none"
                 stroke="#FFFFFF"
                 stroke-miterlimit="10"
                 cx="161.651"
                 cy="100.518"
                 r="1.418"
                 id="circle340" /><circle
                 fill="none"
                 stroke="#FFFFFF"
                 stroke-miterlimit="10"
                 cx="153.651"
                 cy="100.518"
                 r="1.418"
                 id="circle342" /></g></g></g></g></g><path
       fill="none"
       stroke="#FFFFFF"
       stroke-miterlimit="10"
       d="M289.105,372.18c-0.039-3.917-0.765-7.696-2.062-11.269   l-47.179-28.347l0.399-0.1c-0.19,0.005-0.381,0.008-0.571,0.012v-24.918H239.6c-0.892-13.147-8.884-25.146-21.64-34.559   c-8.285-7.423-18.979-13.498-31.271-17.668l-13.172-13.173v-95.252l14.706-14.707c0.075-0.008,0.147-0.015,0.229-0.021   l-0.064-0.214l65.77-20.108c0.018-0.168,0.047-0.337,0.047-0.506c0-0.395-0.049-0.782-0.144-1.169h0.144V74.914H229.23h-28H94.229   H66.73H41.257v35.27h0.141c-0.093,0.387-0.141,0.774-0.141,1.169c0,0.076,0.017,0.148,0.021,0.228l66.682,20.39l-0.089,0.292   c0.042,0.003,0.083,0.008,0.124,0.011l13.944,13.94v95.564l-13.612,13.612c-12.923,4.404-24.075,10.916-32.508,18.892   c-11.772,9.204-19.111,20.715-19.96,33.274h-0.091v24.803c-0.074-0.002-0.149-0.003-0.223-0.005l-47.534,28.56   c-1.099,3.062-1.769,6.278-1.953,9.6H6v46.865v24.969v41.195c0,9.15,5.414,16.57,12.091,16.57H58.98v0.035l16.347,14.136h144.759   l16.388-14.171v0.069h0.007v-0.069h0.25h40.639c6.678,0,12.092-7.42,12.092-16.571v-57.694v-8.773V372.18H289.105z M246.98,82.015   c1.565,0,2.834,1.269,2.834,2.834s-1.269,2.834-2.834,2.834s-2.834-1.269-2.834-2.834S245.415,82.015,246.98,82.015z    M246.98,90.015c1.565,0,2.834,1.269,2.834,2.834s-1.269,2.834-2.834,2.834s-2.834-1.269-2.834-2.834S245.415,90.015,246.98,90.015   z M246.98,98.015c1.565,0,2.834,1.269,2.834,2.834s-1.269,2.834-2.834,2.834s-2.834-1.269-2.834-2.834   S245.415,98.015,246.98,98.015z M49.188,103.684c-1.565,0-2.834-1.269-2.834-2.834s1.269-2.834,2.834-2.834   s2.834,1.269,2.834,2.834S50.753,103.684,49.188,103.684z M49.188,95.684c-1.565,0-2.834-1.269-2.834-2.834   s1.269-2.834,2.834-2.834s2.834,1.269,2.834,2.834S50.753,95.684,49.188,95.684z M49.188,87.684c-1.565,0-2.834-1.269-2.834-2.834   s1.269-2.834,2.834-2.834s2.834,1.269,2.834,2.834S50.753,87.684,49.188,87.684z M11.326,433.898c1.657,0,3,1.343,3,3s-1.343,3-3,3   s-3-1.343-3-3S9.669,433.898,11.326,433.898z M11.48,490.626c-1.657,0-3-1.343-3-3s1.343-3,3-3s3,1.343,3,3   S13.137,490.626,11.48,490.626z M22.076,433.898c1.657,0,3,1.343,3,3s-1.343,3-3,3s-3-1.343-3-3S20.419,433.898,22.076,433.898z    M22.23,490.626c-1.657,0-3-1.343-3-3s1.343-3,3-3s3,1.343,3,3S23.887,490.626,22.23,490.626z M32.076,433.898c1.657,0,3,1.343,3,3   s-1.343,3-3,3s-3-1.343-3-3S30.419,433.898,32.076,433.898z M32.23,490.626c-1.657,0-3-1.343-3-3s1.343-3,3-3s3,1.343,3,3   S33.887,490.626,32.23,490.626z M42.826,433.898c0.028,0,0.055,0.008,0.083,0.009c0.028-0.001,0.055-0.009,0.083-0.009   c1.565,0,2.834,1.271,2.834,2.834c0,0.028-0.007,0.055-0.008,0.083c0.001,0.028,0.008,0.055,0.008,0.083c0,1.657-1.343,3-3,3   s-3-1.343-3-3S41.169,433.898,42.826,433.898z M42.98,490.626c-1.657,0-3-1.343-3-3s1.343-3,3-3s3,1.343,3,3   S44.637,490.626,42.98,490.626z M147.645,152.95c1.565,0,2.835,1.271,2.835,2.835c0,1.565-1.27,2.835-2.835,2.835   s-2.834-1.27-2.834-2.835S146.08,152.95,147.645,152.95z M147.73,475.935c-1.565,0-2.834-1.27-2.834-2.834   c0-1.566,1.269-2.836,2.834-2.836c1.566,0,2.835,1.27,2.835,2.836C150.565,474.665,149.296,475.935,147.73,475.935z    M147.73,466.435c-1.565,0-2.834-1.27-2.834-2.834c0-1.566,1.269-2.836,2.834-2.836c1.566,0,2.835,1.27,2.835,2.836   C150.565,465.165,149.296,466.435,147.73,466.435z M147.73,456.935c-1.565,0-2.834-1.269-2.834-2.835   c0-1.565,1.269-2.834,2.834-2.834c1.566,0,2.835,1.269,2.835,2.834C150.565,455.666,149.296,456.935,147.73,456.935z    M147.73,447.547c-1.565,0-2.834-1.27-2.834-2.834c0-1.566,1.269-2.836,2.834-2.836c1.566,0,2.835,1.27,2.835,2.836   C150.565,446.277,149.296,447.547,147.73,447.547z M147.73,202.848c-1.564,0-2.834-1.271-2.834-2.835   c0-1.565,1.27-2.835,2.834-2.835s2.835,1.27,2.835,2.835C150.565,201.577,149.294,202.848,147.73,202.848z M147.73,188.598   c-1.564,0-2.834-1.271-2.834-2.835c0-1.565,1.27-2.835,2.834-2.835s2.835,1.27,2.835,2.835   C150.565,187.327,149.294,188.598,147.73,188.598z M147.73,173.598c-1.564,0-2.834-1.271-2.834-2.835   c0-1.565,1.27-2.835,2.834-2.835s2.835,1.27,2.835,2.835S149.294,173.598,147.73,173.598z M252.73,433.764c1.657,0,3,1.343,3,3   s-1.343,3-3,3s-3-1.343-3-3S251.073,433.764,252.73,433.764z M252.916,490.514c-0.431,0-0.837-0.094-1.207-0.257   c-1.048-0.417-1.793-1.437-1.793-2.631c0-0.02,0.005-0.037,0.006-0.056c-0.001-0.02-0.006-0.037-0.006-0.057c0-1.657,1.343-3,3-3   s3,1.343,3,3S254.573,490.514,252.916,490.514z M263.48,433.764c1.657,0,3,1.343,3,3s-1.343,3-3,3s-3-1.343-3-3   S261.823,433.764,263.48,433.764z M263.666,490.514c-1.657,0-3-1.343-3-3s1.343-3,3-3s3,1.343,3,3S265.323,490.514,263.666,490.514   z M273.48,433.764c1.657,0,3,1.343,3,3s-1.343,3-3,3s-3-1.343-3-3S271.823,433.764,273.48,433.764z M273.666,490.514   c-1.657,0-3-1.343-3-3s1.343-3,3-3s3,1.343,3,3S275.323,490.514,273.666,490.514z M284.23,433.764c1.657,0,3,1.343,3,3   s-1.343,3-3,3s-3-1.343-3-3S282.573,433.764,284.23,433.764z M284.416,490.514c-1.657,0-3-1.343-3-3s1.343-3,3-3s3,1.343,3,3   S286.073,490.514,284.416,490.514z"
       id="path344" /></g><g
     id="board"><path
       fill="#18733A"
       stroke="#FFFFFF"
       stroke-miterlimit="10"
       d="M289.105,372.18c-0.039-3.917-0.765-7.696-2.062-11.269   l-47.179-28.347l0.399-0.1c-0.19,0.005-0.381,0.008-0.571,0.012v-24.918H239.6c-0.892-13.147-8.884-25.146-21.64-34.559   c-8.285-7.423-18.979-13.498-31.271-17.668l-13.172-13.173v-95.252l14.706-14.707c0.075-0.008,0.147-0.015,0.229-0.021   l-0.064-0.214l65.77-20.108c0.018-0.168,0.047-0.337,0.047-0.506c0-0.395-0.049-0.782-0.144-1.169h0.144V74.914H229.23h-28H94.229   H66.73H41.257v35.27h0.141c-0.093,0.387-0.141,0.774-0.141,1.169c0,0.076,0.017,0.148,0.021,0.228l66.682,20.39l-0.089,0.292   c0.042,0.003,0.083,0.008,0.124,0.011l13.944,13.94v95.564l-13.612,13.612c-12.923,4.404-24.075,10.916-32.508,18.892   c-11.772,9.204-19.111,20.715-19.96,33.274h-0.091v24.803c-0.074-0.002-0.149-0.003-0.223-0.005l-47.534,28.56   c-1.099,3.062-1.769,6.278-1.953,9.6H6v46.865v24.969v41.195c0,9.15,5.414,16.57,12.091,16.57H58.98v0.035l16.347,14.136h144.759   l16.388-14.171v0.069h0.007v-0.069h0.25h40.639c6.678,0,12.092-7.42,12.092-16.571v-57.694v-8.773V372.18H289.105z M246.98,82.015   c1.565,0,2.834,1.269,2.834,2.834s-1.269,2.834-2.834,2.834s-2.834-1.269-2.834-2.834S245.415,82.015,246.98,82.015z    M246.98,90.015c1.565,0,2.834,1.269,2.834,2.834s-1.269,2.834-2.834,2.834s-2.834-1.269-2.834-2.834S245.415,90.015,246.98,90.015   z M246.98,98.015c1.565,0,2.834,1.269,2.834,2.834s-1.269,2.834-2.834,2.834s-2.834-1.269-2.834-2.834   S245.415,98.015,246.98,98.015z M49.188,103.684c-1.565,0-2.834-1.269-2.834-2.834s1.269-2.834,2.834-2.834   s2.834,1.269,2.834,2.834S50.753,103.684,49.188,103.684z M49.188,95.684c-1.565,0-2.834-1.269-2.834-2.834   s1.269-2.834,2.834-2.834s2.834,1.269,2.834,2.834S50.753,95.684,49.188,95.684z M49.188,87.684c-1.565,0-2.834-1.269-2.834-2.834   s1.269-2.834,2.834-2.834s2.834,1.269,2.834,2.834S50.753,87.684,49.188,87.684z M11.326,433.898c1.657,0,3,1.343,3,3s-1.343,3-3,3   s-3-1.343-3-3S9.669,433.898,11.326,433.898z M11.48,490.626c-1.657,0-3-1.343-3-3s1.343-3,3-3s3,1.343,3,3   S13.137,490.626,11.48,490.626z M22.076,433.898c1.657,0,3,1.343,3,3s-1.343,3-3,3s-3-1.343-3-3S20.419,433.898,22.076,433.898z    M22.23,490.626c-1.657,0-3-1.343-3-3s1.343-3,3-3s3,1.343,3,3S23.887,490.626,22.23,490.626z M32.076,433.898c1.657,0,3,1.343,3,3   s-1.343,3-3,3s-3-1.343-3-3S30.419,433.898,32.076,433.898z M32.23,490.626c-1.657,0-3-1.343-3-3s1.343-3,3-3s3,1.343,3,3   S33.887,490.626,32.23,490.626z M42.826,433.898c0.028,0,0.055,0.008,0.083,0.009c0.028-0.001,0.055-0.009,0.083-0.009   c1.565,0,2.834,1.271,2.834,2.834c0,0.028-0.007,0.055-0.008,0.083c0.001,0.028,0.008,0.055,0.008,0.083c0,1.657-1.343,3-3,3   s-3-1.343-3-3S41.169,433.898,42.826,433.898z M42.98,490.626c-1.657,0-3-1.343-3-3s1.343-3,3-3s3,1.343,3,3   S44.637,490.626,42.98,490.626z M147.645,152.95c1.565,0,2.835,1.271,2.835,2.835c0,1.565-1.27,2.835-2.835,2.835   s-2.834-1.27-2.834-2.835S146.08,152.95,147.645,152.95z M147.73,475.935c-1.565,0-2.834-1.27-2.834-2.834   c0-1.566,1.269-2.836,2.834-2.836c1.566,0,2.835,1.27,2.835,2.836C150.565,474.665,149.296,475.935,147.73,475.935z    M147.73,466.435c-1.565,0-2.834-1.27-2.834-2.834c0-1.566,1.269-2.836,2.834-2.836c1.566,0,2.835,1.27,2.835,2.836   C150.565,465.165,149.296,466.435,147.73,466.435z M147.73,456.935c-1.565,0-2.834-1.269-2.834-2.835   c0-1.565,1.269-2.834,2.834-2.834c1.566,0,2.835,1.269,2.835,2.834C150.565,455.666,149.296,456.935,147.73,456.935z    M147.73,447.547c-1.565,0-2.834-1.27-2.834-2.834c0-1.566,1.269-2.836,2.834-2.836c1.566,0,2.835,1.27,2.835,2.836   C150.565,446.277,149.296,447.547,147.73,447.547z M147.73,202.848c-1.564,0-2.834-1.271-2.834-2.835   c0-1.565,1.27-2.835,2.834-2.835s2.835,1.27,2.835,2.835C150.565,201.577,149.294,202.848,147.73,202.848z M147.73,188.598   c-1.564,0-2.834-1.271-2.834-2.835c0-1.565,1.27-2.835,2.834-2.835s2.835,1.27,2.835,2.835   C150.565,187.327,149.294,188.598,147.73,188.598z M147.73,173.598c-1.564,0-2.834-1.271-2.834-2.835   c0-1.565,1.27-2.835,2.834-2.835s2.835,1.27,2.835,2.835S149.294,173.598,147.73,173.598z M252.73,433.764c1.657,0,3,1.343,3,3   s-1.343,3-3,3s-3-1.343-3-3S251.073,433.764,252.73,433.764z M252.916,490.514c-0.431,0-0.837-0.094-1.207-0.257   c-1.048-0.417-1.793-1.437-1.793-2.631c0-0.02,0.005-0.037,0.006-0.056c-0.001-0.02-0.006-0.037-0.006-0.057c0-1.657,1.343-3,3-3   s3,1.343,3,3S254.573,490.514,252.916,490.514z M263.48,433.764c1.657,0,3,1.343,3,3s-1.343,3-3,3s-3-1.343-3-3   S261.823,433.764,263.48,433.764z M263.666,490.514c-1.657,0-3-1.343-3-3s1.343-3,3-3s3,1.343,3,3S265.323,490.514,263.666,490.514   z M273.48,433.764c1.657,0,3,1.343,3,3s-1.343,3-3,3s-3-1.343-3-3S271.823,433.764,273.48,433.764z M273.666,490.514   c-1.657,0-3-1.343-3-3s1.343-3,3-3s3,1.343,3,3S275.323,490.514,273.666,490.514z M284.23,433.764c1.657,0,3,1.343,3,3   s-1.343,3-3,3s-3-1.343-3-3S282.573,433.764,284.23,433.764z M284.416,490.514c-1.657,0-3-1.343-3-3s1.343-3,3-3s3,1.343,3,3   S286.073,490.514,284.416,490.514z"
       id="path347" /></g><g
     id="g3169"
     transform="translate(-123.10738,-67.953412)"><rect
       y="154.0616"
       x="230.64127"
       height="15.06116"
       width="15.06116"
       id="rect3330-0"
       style="fill:#000000;fill-opacity:1;fill-rule:evenodd;stroke:#ffffff;stroke-width:0.93884045px;stroke-linecap:butt;stroke-linejoin:miter;stroke-opacity:1" /><rect
       style="fill:#000000;fill-opacity:1;fill-rule:evenodd;stroke:#ffffff;stroke-width:0.93884045px;stroke-linecap:butt;stroke-linejoin:miter;stroke-opacity:1"
       id="rect4118"
       width="15.06116"
       height="15.06116"
       x="188.60315"
       y="154.0616" /><rect
       y="154.0616"
       x="209.62221"
       height="15.06116"
       width="15.06116"
       id="rect3163"
       style="fill:#000000;fill-opacity:1;fill-rule:evenodd;stroke:#ffffff;stroke-width:0.93884045px;stroke-linecap:butt;stroke-linejoin:miter;stroke-opacity:1" /><rect
       style="fill:#000000;fill-opacity:1;fill-rule:evenodd;stroke:#ffffff;stroke-width:0.93884045px;stroke-linecap:butt;stroke-linejoin:miter;stroke-opacity:1"
       id="rect3167"
       width="15.06116"
       height="15.06116"
       x="251.66032"
       y="154.0616" /></g><g
     id="g3175"
     transform="translate(-38.165615,-67.953412)"><rect
       style="fill:#000000;fill-opacity:1;fill-rule:evenodd;stroke:#ffffff;stroke-width:0.93884045px;stroke-linecap:butt;stroke-linejoin:miter;stroke-opacity:1"
       id="rect3177"
       width="15.06116"
       height="15.06116"
       x="230.64127"
       y="154.0616" /><rect
       y="154.0616"
       x="188.60315"
       height="15.06116"
       width="15.06116"
       id="rect3179"
       style="fill:#000000;fill-opacity:1;fill-rule:evenodd;stroke:#ffffff;stroke-width:0.93884045px;stroke-linecap:butt;stroke-linejoin:miter;stroke-opacity:1" /><rect
       style="fill:#000000;fill-opacity:1;fill-rule:evenodd;stroke:#ffffff;stroke-width:0.93884045px;stroke-linecap:butt;stroke-linejoin:miter;stroke-opacity:1"
       id="rect3181"
       width="15.06116"
       height="15.06116"
       x="209.62221"
       y="154.0616" /><rect
       y="154.0616"
       x="251.66032"
       height="15.06116"
       width="15.06116"
       id="rect3183"
       style="fill:#000000;fill-opacity:1;fill-rule:evenodd;stroke:#ffffff;stroke-width:0.93884045px;stroke-linecap:butt;stroke-linejoin:miter;stroke-opacity:1" /></g><path
     transform="translate(3.8607704,134.81334)"
     d="m 116.50557,-41.297733 a 4.9366765,5.1012325 0 1 1 -9.87335,0 4.9366765,5.1012325 0 1 1 9.87335,0 z"
     sodipodi:ry="5.1012325"
     sodipodi:rx="4.9366765"
     sodipodi:cy="-41.297733"
     sodipodi:cx="111.56889"
     id="path3974-1"
     style="fill:#ffffff;fill-opacity:1;fill-rule:evenodd;stroke:#e1dcf9;stroke-width:1px;stroke-linecap:butt;stroke-linejoin:miter;stroke-opacity:1;filter:url(#filter3992-4)"
     sodipodi:type="arc" /><path
     transform="translate(24.731135,134.97789)"
     d="m 116.50557,-41.297733 a 4.9366765,5.1012325 0 1 1 -9.87335,0 4.9366765,5.1012325 0 1 1 9.87335,0 z"
     sodipodi:ry="5.1012325"
     sodipodi:rx="4.9366765"
     sodipodi:cy="-41.297733"
     sodipodi:cx="111.56889"
     id="path3974-1-2"
     style="fill:#ffffff;fill-opacity:1;fill-rule:evenodd;stroke:#e1dcf9;stroke-width:1px;stroke-linecap:butt;stroke-linejoin:miter;stroke-opacity:1;filter:url(#filter3992-4-1)"
     sodipodi:type="arc" /><text
     xml:space="preserve"
     style="font-size:10.17781925px;font-style:normal;font-weight:normal;line-height:125%;letter-spacing:0px;word-spacing:0px;fill:#ffffff;fill-opacity:1;stroke:none;font-family:Sans"
     x="64.721794"
     y="113.0845"
     id="text3978"
     sodipodi:linespacing="125%"
     transform="scale(1.0489851,0.95330239)"><tspan
       sodipodi:role="line"
       id="tspan3980"
       x="64.721794"
       y="113.0845"
       style="font-size:6px;fill:#ffffff;fill-opacity:1">PC4</tspan></text>
<text
     xml:space="preserve"
     style="font-size:8px;font-style:normal;font-weight:normal;line-height:125%;letter-spacing:0px;word-spacing:0px;fill:#ffffff;fill-opacity:1;stroke:none;font-family:Sans"
     x="88.088066"
     y="108.01607"
     id="text3978-7"
     sodipodi:linespacing="125%"><tspan
       sodipodi:role="line"
       id="tspan3980-8"
       x="88.088066"
       y="108.01607"
       style="font-size:6px;fill:#ffffff;fill-opacity:1">PD4</tspan></text>
<text
     xml:space="preserve"
     style="font-size:8px;font-style:normal;font-weight:normal;line-height:125%;letter-spacing:0px;word-spacing:0px;fill:#ffffff;fill-opacity:1;stroke:none;font-family:Sans"
     x="109.74382"
     y="108.73954"
     id="text3978-7-8"
     sodipodi:linespacing="125%"
     inkscape:transform-center-x="1.396303"
     inkscape:transform-center-y="2.2690429"><tspan
       sodipodi:role="line"
       id="tspan3980-8-3"
       x="109.74382"
       y="108.73954"
       style="font-size:6px;fill:#ffffff;fill-opacity:1">PC0</tspan></text>
<text
     xml:space="preserve"
     style="font-size:8px;font-style:normal;font-weight:normal;line-height:125%;letter-spacing:0px;word-spacing:0px;fill:#ffffff;fill-opacity:1;stroke:none;font-family:Sans"
     x="130.04066"
     y="109.06863"
     id="text3978-7-9"
     sodipodi:linespacing="125%"><tspan
       sodipodi:role="line"
       id="tspan3980-8-9"
       x="130.04066"
       y="109.06863"
       style="font-size:6px;fill:#ffffff;fill-opacity:1">PC1</tspan></text>
<text
     xml:space="preserve"
     style="font-size:8px;font-style:normal;font-weight:normal;line-height:125%;letter-spacing:0px;word-spacing:0px;fill:#ffffff;fill-opacity:1;stroke:none;font-family:Sans"
     x="151.26837"
     y="109.02872"
     id="text3978-7-0"
     sodipodi:linespacing="125%"><tspan
       sodipodi:role="line"
       id="tspan3980-8-7"
       x="151.26837"
       y="109.02872"
       style="font-size:6px;fill:#ffffff;fill-opacity:1">PC2</tspan></text>
<text
     xml:space="preserve"
     style="font-size:8px;font-style:normal;font-weight:normal;line-height:125%;letter-spacing:0px;word-spacing:0px;fill:#ffffff;fill-opacity:1;stroke:none;font-family:Sans"
     x="172.98975"
     y="109.35783"
     id="text3978-7-84"
     sodipodi:linespacing="125%"><tspan
       sodipodi:role="line"
       id="tspan3980-8-8"
       x="172.98975"
       y="109.35783"
       style="font-size:6px;fill:#ffffff;fill-opacity:1" /></text>
<text
     xml:space="preserve"
     style="font-size:8px;font-style:normal;font-weight:normal;line-height:125%;letter-spacing:0px;word-spacing:0px;fill:#ffffff;fill-opacity:1;stroke:none;font-family:Sans"
     x="172.05286"
     y="109.02871"
     id="text3978-7-4"
     sodipodi:linespacing="125%"><tspan
       sodipodi:role="line"
       id="tspan3980-8-0"
       x="172.05286"
       y="109.02871"
       style="font-size:6px;fill:#ffffff;fill-opacity:1">PC3</tspan></text>
<text
     xml:space="preserve"
     style="font-size:8px;font-style:normal;font-weight:normal;line-height:125%;letter-spacing:0px;word-spacing:0px;fill:#ffffff;fill-opacity:1;stroke:none;font-family:Sans"
     x="194.33606"
     y="108.89238"
     id="text3978-7-6"
     sodipodi:linespacing="125%"><tspan
       sodipodi:role="line"
       id="tspan3980-8-2"
       x="194.33606"
       y="108.89238"
       style="font-size:6px;fill:#ffffff;fill-opacity:1">PD7</tspan></text>
<text
     xml:space="preserve"
     style="font-size:8px;font-style:normal;font-weight:normal;line-height:125%;letter-spacing:0px;word-spacing:0px;fill:#ffffff;fill-opacity:1;stroke:none;font-family:Sans"
     x="216.0712"
     y="108.74861"
     id="text3978-7-01"
     sodipodi:linespacing="125%"><tspan
       sodipodi:role="line"
       id="tspan3980-8-25"
       x="216.0712"
       y="108.74861"
       style="font-size:6px;fill:#ffffff;fill-opacity:1">PC5</tspan></text>
</svg>